0
SECTION
2
HEADER
9
$INSUNITS
70
4
9
$ACADVER
1
AC1014
9
$HANDSEED
5
FFFF
0
ENDSEC
0
SECTION
2
TABLES
0
TABLE
2
VPORT
5
8
100
AcDbSymbolTable
0
ENDTAB
0
TABLE
2
LTYPE
5
5
100
AcDbSymbolTable
0
LTYPE
5
14
100
AcDbSymbolTableRecord
100
AcDbLinetypeTableRecord
2
BYBLOCK
70
0
0
LTYPE
5
15
100
AcDbSymbolTableRecord
100
AcDbLinetypeTableRecord
2
BYLAYER
70
0
0
ENDTAB
0
TABLE
2
LAYER
5
2
100
AcDbSymbolTable
70
2
0
LAYER
5
50
100
AcDbSymbolTableRecord
100
AcDbLayerTableRecord
2
0
70
0
6
CONTINUOUS
0
ENDTAB
0
TABLE
2
STYLE
5
3
100
AcDbSymbolTable
70
1
0
STYLE
5
11
100
AcDbSymbolTableRecord
100
AcDbTextStyleTableRecord
2
STANDARD
70
0
0
ENDTAB
0
TABLE
2
VIEW
5
6
100
AcDbSymbolTable
70
0
0
ENDTAB
0
TABLE
2
UCS
5
7
100
AcDbSymbolTable
70
0
0
ENDTAB
0
TABLE
2
APPID
5
9
100
AcDbSymbolTable
70
2
0
APPID
5
12
100
AcDbSymbolTableRecord
100
AcDbRegAppTableRecord
2
ACAD
70
0
0
ENDTAB
0
TABLE
2
DIMSTYLE
5
A
100
AcDbSymbolTable
70
1
0
ENDTAB
0
TABLE
2
BLOCK_RECORD
5
1
100
AcDbSymbolTable
70
1
0
BLOCK_RECORD
5
1F
100
AcDbSymbolTableRecord
100
AcDbBlockTableRecord
2
*MODEL_SPACE
0
BLOCK_RECORD
5
1B
100
AcDbSymbolTableRecord
100
AcDbBlockTableRecord
2
*PAPER_SPACE
0
ENDTAB
0
ENDSEC
0
SECTION
2
BLOCKS
0
BLOCK
5
20
100
AcDbEntity
100
AcDbBlockBegin
2
*MODEL_SPACE
0
ENDBLK
5
21
100
AcDbEntity
100
AcDbBlockEnd
0
BLOCK
5
1C
100
AcDbEntity
100
AcDbBlockBegin
2
*PAPER_SPACE
0
ENDBLK
5
1D
100
AcDbEntity
100
AcDbBlockEnd
0
ENDSEC
0
SECTION
2
ENTITIES
0
LINE
5
100
100
AcDbEntity
8
0
100
AcDbLine
10
-115.68876900679101
20
145.19276986190224
30
0
11
-112.63350486256491
21
133.7951596489209
31
0
0
ARC
5
101
100
AcDbEntity
8
0
100
AcDbCircle
10
-113.59940348591627
20
133.53623910240526
30
0
40
0.99999999999999378
210
-0
220
0
230
1
100
AcDbArc
50
-74.994551677467172
51
15.006020839606391
0
CIRCLE
5
102
100
AcDbEntity
8
0
100
AcDbCircle
10
-157.30000000000001
20
136.90000000000001
30
0
40
1.0999999999999943
210
0
220
-0
230
1
0
CIRCLE
5
103
100
AcDbEntity
8
0
100
AcDbCircle
10
-191.02499999999998
20
68.424999999999997
30
0
40
1.0999999999999943
210
0
220
-0
230
1
0
CIRCLE
5
104
100
AcDbEntity
8
0
100
AcDbCircle
10
-162.45000000000002
20
87.474999999999994
30
0
40
1.0999999999999943
210
0
220
-0
230
1
0
CIRCLE
5
105
100
AcDbEntity
8
0
100
AcDbCircle
10
-107.30000000000001
20
136.90000000000001
30
0
40
1.0999999999999943
210
0
220
-0
230
1
0
CIRCLE
5
106
100
AcDbEntity
8
0
100
AcDbCircle
10
-198.30000000000001
20
130.90000000000001
30
0
40
1.0999999999999943
210
0
220
-0
230
1
0
CIRCLE
5
107
100
AcDbEntity
8
0
100
AcDbCircle
10
-133.875
20
68.424999999999997
30
0
40
1.0999999999999943
210
0
220
-0
230
1
0
CIRCLE
5
108
100
AcDbEntity
8
0
100
AcDbCircle
10
-205.3125
20
106.52500000000001
30
0
40
1.0999999999999943
210
0
220
-0
230
1
0
CIRCLE
5
109
100
AcDbEntity
8
0
100
AcDbCircle
10
-119.58750000000002
20
106.52500000000001
30
0
40
1.0999999999999943
210
0
220
-0
230
1
0
LWPOLYLINE
5
110
100
AcDbEntity
8
0
100
AcDbPolyline
90
34
70
1
43
0.0
10
-229.625
20
47.875000000000014
42
-0.41421356237310542
10
-230.625
20
48.874999999999993
10
-230.62500000000003
20
87.974999999999994
42
-0.41421356237310542
10
-229.625
20
88.975000000000009
10
-226.86199999999999
20
88.975000000000009
42
0.41421356237309503
10
-225.86199999999997
20
89.975000000000009
10
-225.86200000000002
20
107.02500000000001
42
-0.41421356237310542
10
-224.86199999999997
20
108.02500000000002
10
-217.33700000000002
20
108.02500000000002
42
0.41421356237309503
10
-216.33700000000002
20
109.02500000000002
10
-216.33700000000005
20
135.53008952175847
42
-0.37091779937844227
10
-215.48648607343142
20
136.51885335293861
10
-152.18706873435144
20
146.08876383118013
42
-0.037529726479310195
10
-152.03758266092001
20
146.09999999999999
10
-133.33643435917389
20
146.10000000000002
42
0.066984956688995526
10
-133.07207445416395
20
146.13557590209331
10
-114.01102352181121
20
151.36043250283967
42
0.064941833873485427
10
-113.77248984851752
20
151.46050826303701
10
-97.121237125859636
20
161.14850984712888
42
-0.41484267749900433
10
-95.752917262074874
20
160.78519777996121
10
-80.951122780139912
20
135.21846185661906
42
-0.41447028431255112
10
-81.316271467746418
20
133.8515605128328
10
-89.012777597874631
20
129.40469030431424
42
0.26786329724367247
10
-89.512500000000003
20
128.53882523106969
10
-89.512499999999989
20
106.02500000000003
42
-0.41421356237310542
10
-90.512499999999989
20
105.02500000000001
10
-98.036999999999992
20
105.02500000000001
42
0.41421356237309503
10
-99.037000000000006
20
104.02500000000002
10
-99.037000000000006
20
89.975000000000023
42
0.41421356237309503
10
-98.037000000000006
20
88.975000000000023
10
-95.275000000000006
20
88.975000000000023
42
-0.41421356237310542
10
-94.275000000000006
20
87.975000000000023
10
-94.27500000000002
20
48.874999999999993
42
-0.41421356237309764
10
-95.275000000000006
20
47.875
0
LWPOLYLINE
5
111
100
AcDbEntity
8
0
100
AcDbPolyline
90
8
70
1
43
0.0
10
-112.22450000000001
20
64.850400000000008
10
-112.22450000000001
20
53.050399999999996
42
0.41421356237309764
10
-111.22450000000001
20
52.050400000000003
10
-99.424500000000009
20
52.050400000000003
42
0.41421356237309764
10
-98.424500000000009
20
53.050399999999996
10
-98.424500000000009
20
64.850400000000008
42
0.41421356237309764
10
-99.424500000000009
20
65.850400000000008
10
-111.22450000000001
20
65.850400000000008
42
0.41421356237309764
0
LWPOLYLINE
5
112
100
AcDbEntity
8
0
100
AcDbPolyline
90
8
70
1
43
0.0
10
-121.74950000000003
20
83.900400000000019
10
-121.74950000000003
20
72.100399999999979
42
0.41421353870593725
10
-120.74950008080476
20
71.100399999999993
10
-108.94950008080473
20
71.100399999999993
42
0.41421358604024022
10
-107.9495
20
72.100399999999979
10
-107.9495
20
83.900400000000019
42
0.41421356237309503
10
-108.9495
20
84.900400000000019
10
-120.74950000000003
20
84.900400000000019
42
0.41421356237309503
0
LWPOLYLINE
5
113
100
AcDbEntity
8
0
100
AcDbPolyline
90
8
70
1
43
0.0
10
-107.46200000000002
20
122.00040000000003
10
-107.46200000000002
20
110.2004
42
0.41421356237309503
10
-106.46200000000002
20
109.2004
10
-94.661999999999992
20
109.2004
42
0.41421356237309503
10
-93.661999999999992
20
110.2004
10
-93.661999999999992
20
122.00040000000003
42
0.41421356237309503
10
-94.661999999999992
20
123.00040000000003
10
-106.46200000000002
20
123.00040000000003
42
0.41421356237309503
0
LWPOLYLINE
5
114
100
AcDbEntity
8
0
100
AcDbPolyline
90
8
70
1
43
0.0
10
-116.98700000000002
20
102.95040000000002
10
-116.98700000000002
20
91.150399999999991
42
0.41421356237309503
10
-115.98700000000002
20
90.150399999999991
10
-104.187
20
90.150399999999991
42
0.41421356237309503
10
-103.187
20
91.150399999999991
10
-103.187
20
102.95040000000002
42
0.41421356237309503
10
-104.187
20
103.95040000000002
10
-115.98700000000002
20
103.95040000000002
42
0.41421356237309503
0
LWPOLYLINE
5
115
100
AcDbEntity
8
0
100
AcDbPolyline
90
8
70
1
43
0.0
10
-131.27449999999999
20
64.850400000000008
10
-131.27449999999999
20
53.050399999999996
42
0.41421356237309764
10
-130.27450000000002
20
52.050400000000003
10
-118.47450000000002
20
52.050400000000003
42
0.41421356237309764
10
-117.47450000000001
20
53.050399999999996
10
-117.47450000000002
20
64.850400000000008
42
0.41421356237309764
10
-118.47450000000002
20
65.850400000000008
10
-130.27450000000002
20
65.850400000000008
42
0.41421356237309764
0
LWPOLYLINE
5
116
100
AcDbEntity
8
0
100
AcDbPolyline
90
8
70
1
43
0.0
10
-140.79950000000002
20
83.900400000000019
10
-140.79950000000002
20
72.100399999999979
42
0.41421353870593985
10
-139.79950008080476
20
71.100399999999993
10
-127.99950008080472
20
71.100399999999993
42
0.41421358604024283
10
-126.99950000000001
20
72.100399999999979
10
-126.9995
20
83.900400000000019
42
0.41421356237310542
10
-127.99949999999998
20
84.900400000000019
10
-139.79950000000002
20
84.900400000000019
42
0.41421356237310542
0
LWPOLYLINE
5
117
100
AcDbEntity
8
0
100
AcDbPolyline
90
8
70
1
43
0.0
10
-126.51200000000003
20
122.00040000000003
10
-126.51200000000003
20
110.2004
42
0.41421356237309503
10
-125.51200000000001
20
109.2004
10
-113.71199999999999
20
109.2004
42
0.41421356237309503
10
-112.712
20
110.2004
10
-112.71199999999999
20
122.00040000000003
42
0.41421356237309503
10
-113.71199999999999
20
123.00040000000003
10
-125.51200000000001
20
123.00040000000003
42
0.41421356237309503
0
LWPOLYLINE
5
118
100
AcDbEntity
8
0
100
AcDbPolyline
90
8
70
1
43
0.0
10
-136.03700000000003
20
102.95040000000002
10
-136.03700000000003
20
91.150399999999991
42
0.41421356237309503
10
-135.03700000000003
20
90.150399999999991
10
-123.23699999999999
20
90.150399999999991
42
0.41421356237309503
10
-122.23700000000001
20
91.150399999999991
10
-122.23699999999999
20
102.95040000000002
42
0.41421356237309503
10
-123.23699999999999
20
103.95040000000002
10
-135.03700000000003
20
103.95040000000002
42
0.41421356237309503
0
LWPOLYLINE
5
119
100
AcDbEntity
8
0
100
AcDbPolyline
90
8
70
1
43
0.0
10
-150.3245
20
64.850400000000008
10
-150.3245
20
53.050399999999996
42
0.41421356237309503
10
-149.3245
20
52.050400000000003
10
-137.52450000000002
20
52.050400000000003
42
0.41421356237309503
10
-136.52450000000002
20
53.050399999999996
10
-136.52450000000002
20
64.850400000000008
42
0.41421356237309503
10
-137.52450000000002
20
65.850400000000008
10
-149.3245
20
65.850400000000008
42
0.41421356237309503
0
LWPOLYLINE
5
120
100
AcDbEntity
8
0
100
AcDbPolyline
90
8
70
1
43
0.0
10
-159.84950000000003
20
83.900400000000019
10
-159.84950000000003
20
72.100399999999979
42
0.41421353870593985
10
-158.84950008080477
20
71.100399999999993
10
-147.04950008080473
20
71.100399999999993
42
0.41421358604024283
10
-146.04949999999999
20
72.100399999999979
10
-146.04949999999999
20
83.900400000000019
42
0.41421356237310542
10
-147.04949999999999
20
84.900400000000019
10
-158.84950000000003
20
84.900400000000019
42
0.41421356237310542
0
LWPOLYLINE
5
121
100
AcDbEntity
8
0
100
AcDbPolyline
90
8
70
1
43
0.0
10
-145.56200000000001
20
122.00040000000003
10
-145.56200000000001
20
110.2004
42
0.41421356237309503
10
-144.56200000000001
20
109.2004
10
-132.762
20
109.2004
42
0.41421356237309503
10
-131.762
20
110.2004
10
-131.762
20
122.00040000000003
42
0.41421356237309503
10
-132.762
20
123.00040000000003
10
-144.56200000000001
20
123.00040000000003
42
0.41421356237309503
0
LWPOLYLINE
5
122
100
AcDbEntity
8
0
100
AcDbPolyline
90
8
70
1
43
0.0
10
-155.08700000000002
20
102.95040000000002
10
-155.08700000000002
20
91.150399999999991
42
0.41421356237309503
10
-154.08700000000005
20
90.150399999999991
10
-142.28700000000001
20
90.150399999999991
42
0.41421356237309503
10
-141.28700000000001
20
91.150399999999991
10
-141.28700000000001
20
102.95040000000002
42
0.41421356237309503
10
-142.28700000000001
20
103.95040000000002
10
-154.08700000000005
20
103.95040000000002
42
0.41421356237309503
0
LWPOLYLINE
5
123
100
AcDbEntity
8
0
100
AcDbPolyline
90
8
70
1
43
0.0
10
-169.37450000000001
20
64.850400000000008
10
-169.37450000000001
20
53.050399999999996
42
0.41421356237310025
10
-168.37450000000001
20
52.050400000000003
10
-156.5745
20
52.050400000000003
42
0.41421356237309764
10
-155.57450000000003
20
53.050399999999996
10
-155.5745
20
64.850400000000008
42
0.41421356237309764
10
-156.5745
20
65.850400000000008
10
-168.37450000000001
20
65.850400000000008
42
0.41421356237310025
0
LWPOLYLINE
5
124
100
AcDbEntity
8
0
100
AcDbPolyline
90
8
70
1
43
0.0
10
-178.89950000000002
20
83.900400000000019
10
-178.89950000000002
20
72.100399999999979
42
0.41421353870594763
10
-177.89950008080478
20
71.100399999999993
10
-166.09950008080475
20
71.100399999999993
42
0.41421358604025321
10
-165.09950000000001
20
72.100399999999979
10
-165.09950000000003
20
83.900400000000019
42
0.41421356237310542
10
-166.09950000000001
20
84.900400000000019
10
-177.89950000000005
20
84.900400000000019
42
0.41421356237310542
0
LWPOLYLINE
5
125
100
AcDbEntity
8
0
100
AcDbPolyline
90
8
70
1
43
0.0
10
-164.61200000000002
20
122.00040000000003
10
-164.61200000000002
20
110.2004
42
0.41421356237308982
10
-163.61200000000002
20
109.2004
10
-151.81200000000001
20
109.2004
42
0.41421356237309503
10
-150.81199999999998
20
110.2004
10
-150.81200000000001
20
122.00040000000003
42
0.41421356237309503
10
-151.81200000000001
20
123.00040000000003
10
-163.61200000000002
20
123.00040000000003
42
0.41421356237308982
0
LWPOLYLINE
5
126
100
AcDbEntity
8
0
100
AcDbPolyline
90
8
70
1
43
0.0
10
-174.13700000000003
20
102.95040000000002
10
-174.13700000000003
20
91.150399999999991
42
0.41421356237308982
10
-173.13700000000006
20
90.150399999999991
10
-161.33700000000002
20
90.150399999999991
42
0.41421356237310025
10
-160.33699999999999
20
91.150399999999991
10
-160.33700000000005
20
102.95040000000002
42
0.41421356237310025
10
-161.33700000000002
20
103.95040000000002
10
-173.13700000000006
20
103.95040000000002
42
0.41421356237308982
0
LWPOLYLINE
5
127
100
AcDbEntity
8
0
100
AcDbPolyline
90
8
70
1
43
0.0
10
-188.42449999999999
20
64.850400000000008
10
-188.42449999999999
20
53.050399999999996
42
0.41421356237310025
10
-187.42450000000002
20
52.050400000000003
10
-175.62450000000001
20
52.050400000000003
42
0.41421356237310025
10
-174.62450000000004
20
53.050399999999996
10
-174.62450000000004
20
64.850400000000008
42
0.41421356237310025
10
-175.62450000000001
20
65.850400000000008
10
-187.42450000000002
20
65.850400000000008
42
0.41421356237310025
0
LWPOLYLINE
5
128
100
AcDbEntity
8
0
100
AcDbPolyline
90
8
70
1
43
0.0
10
-197.94950000000003
20
83.900400000000019
10
-197.94950000000003
20
72.100399999999979
42
0.41421353870596067
10
-196.94950008080474
20
71.100399999999993
10
-185.14950008080476
20
71.100399999999993
42
0.41421358604027664
10
-184.14950000000002
20
72.100399999999979
10
-184.14949999999999
20
83.900400000000019
42
0.41421356237310542
10
-185.14949999999999
20
84.900400000000019
10
-196.94950000000006
20
84.900400000000019
42
0.41421356237310542
0
LWPOLYLINE
5
129
100
AcDbEntity
8
0
100
AcDbPolyline
90
8
70
1
43
0.0
10
-183.66200000000003
20
122.00040000000003
10
-183.66200000000003
20
110.2004
42
0.41421356237308982
10
-182.66200000000003
20
109.2004
10
-170.86199999999997
20
109.2004
42
0.41421356237308982
10
-169.86199999999999
20
110.2004
10
-169.86199999999997
20
122.00040000000003
42
0.41421356237308982
10
-170.86199999999997
20
123.00040000000003
10
-182.66200000000003
20
123.00040000000003
42
0.41421356237308982
0
LWPOLYLINE
5
130
100
AcDbEntity
8
0
100
AcDbPolyline
90
8
70
1
43
0.0
10
-193.18700000000004
20
102.95040000000002
10
-193.18700000000004
20
91.150399999999991
42
0.41421356237308982
10
-192.18700000000007
20
90.150399999999991
10
-180.387
20
90.150399999999991
42
0.41421356237308982
10
-179.387
20
91.150399999999991
10
-179.38699999999997
20
102.95040000000002
42
0.41421356237308982
10
-180.387
20
103.95040000000002
10
-192.18700000000007
20
103.95040000000002
42
0.41421356237308982
0
LWPOLYLINE
5
131
100
AcDbEntity
8
0
100
AcDbPolyline
90
8
70
1
43
0.0
10
-207.47450000000001
20
64.850400000000008
10
-207.47450000000001
20
53.050399999999996
42
0.41421356237310025
10
-206.47450000000003
20
52.050400000000003
10
-194.67450000000002
20
52.050400000000003
42
0.41421356237310025
10
-193.67450000000005
20
53.050399999999996
10
-193.67450000000005
20
64.850400000000008
42
0.41421356237310025
10
-194.67450000000002
20
65.850400000000008
10
-206.47450000000003
20
65.850400000000008
42
0.41421356237310025
0
LWPOLYLINE
5
132
100
AcDbEntity
8
0
100
AcDbPolyline
90
8
70
1
43
0.0
10
-220.86250017659273
20
71.100399999999979
10
-209.06250017659278
20
71.100399999999979
42
0.41421359042874567
10
-208.0625000808048
20
72.100399999999979
10
-208.0625000808048
20
83.900400000000019
42
0.41421352787776872
10
-209.0624999630304
20
84.900400000000047
10
-220.86249996303036
20
84.900400000000047
42
0.41421359686840137
10
-221.86250008080478
20
83.900400000000019
10
-221.86250008080478
20
72.100399999999979
42
0.41421353431746055
0
LWPOLYLINE
5
133
100
AcDbEntity
8
0
100
AcDbPolyline
90
8
70
1
43
0.0
10
-206.5749998822256
20
109.20039999999999
10
-194.77499988222564
20
109.20039999999999
42
0.41421352787776872
10
-193.77500000000003
20
110.2004
10
-193.77500000000003
20
122.00040000000003
42
0.41421352787776872
10
-194.77499988222564
20
123.00040000000004
10
-206.5749998822256
20
123.00040000000004
42
0.41421359686838577
10
-207.57500000000005
20
122.00040000000003
10
-207.57500000000005
20
110.2004
42
0.41421359686838577
0
LWPOLYLINE
5
134
100
AcDbEntity
8
0
100
AcDbPolyline
90
8
70
1
43
0.0
10
-216.09999988222563
20
90.150399999999976
10
-204.29999988222565
20
90.150399999999976
42
0.41421352787776872
10
-203.30000000000007
20
91.150399999999991
10
-203.30000000000007
20
102.95040000000002
42
0.41421352787776872
10
-204.29999988222565
20
103.95040000000003
10
-216.09999988222563
20
103.95040000000003
42
0.41421359686838577
10
-217.10000000000005
20
102.95040000000002
10
-217.10000000000005
20
91.150399999999991
42
0.41421359686838577
0
LWPOLYLINE
5
135
100
AcDbEntity
8
0
100
AcDbPolyline
90
8
70
1
43
0.0
10
-226.52449999999993
20
64.850400000000008
10
-226.52450000000002
20
53.050399999999996
42
0.41421353431746055
10
-225.52450009578797
20
52.050399999999996
10
-213.72450009578799
20
52.050399999999996
42
0.41421359042874306
10
-212.72449999999998
20
53.050399999999996
10
-212.72450000000003
20
64.850400000000008
42
0.41421359042872224
10
-213.72450009578802
20
65.850400000000022
10
-225.52450009578791
20
65.850400000000022
42
0.41421353431746055
0
LINE
5
136
100
AcDbEntity
8
0
100
AcDbLine
10
-125.96290954182841
20
130.22206982443282
30
0
11
-129.01816761788655
21
141.61965739992979
31
0
0
ARC
5
137
100
AcDbEntity
8
0
100
AcDbCircle
10
-128.05226966598653
20
141.87858045127012
30
0
40
1.0000000000000182
210
0
220
0
230
1
100
AcDbArc
50
105.00698069898166
51
195.00616942241922
0
LINE
5
138
100
AcDbEntity
8
0
100
AcDbLine
10
-128.31120639388192
20
142.84447473686606
30
0
11
-116.91356516583419
21
145.89974719491835
31
0
0
ARC
5
139
100
AcDbEntity
8
0
100
AcDbCircle
10
-116.65466590151891
20
144.93384286687291
30
0
40
0.99999999999995648
210
0
220
-0
230
1
100
AcDbArc
50
15.006403356924592
51
105.00475841244578
0
LINE
5
140
100
AcDbEntity
8
0
100
AcDbLine
10
-113.34049259097009
20
132.5703378918883
30
0
11
-124.73808695382884
21
129.51507799644634
31
0
0
ARC
5
141
100
AcDbEntity
8
0
100
AcDbCircle
10
-124.99700725038383
20
130.48097668680256
30
0
40
1.0000000000000071
210
0
220
0
230
1
100
AcDbArc
50
195.00520911641178
51
285.00600601228604
0
LWPOLYLINE
5
142
100
AcDbEntity
8
0
100
AcDbPolyline
90
8
70
1
43
0.0
10
-99.526475217493484
20
133.63246872260117
10
-89.306874699164226
20
139.53160142592301
42
0.41421668002132234
10
-88.940724147194658
20
140.8976010825491
10
-94.839858324111432
20
151.11720415370965
42
0.41421089679928347
10
-96.205845878503567
20
151.48334592891712
10
-106.42545161660237
20
145.58421021257129
42
0.41421236563817398
10
-106.79159500226199
20
144.21821941856231
10
-100.89244985055427
20
133.99859733518983
42
0.41420431563577986
0
LWPOLYLINE
5
143
100
AcDbEntity
8
0
100
AcDbPolyline
90
8
70
1
43
0.0
10
-149.37299999999999
20
141.05000000000001
10
-149.37299999999999
20
129.25
42
0.41421356237309503
10
-148.37300000000002
20
128.25
10
-136.57299999999998
20
128.25
42
0.41421356237309503
10
-135.57300000000001
20
129.25
10
-135.57300000000001
20
141.05000000000001
42
0.41421356237310542
10
-136.57299999999998
20
142.05000000000001
10
-148.37300000000002
20
142.05000000000001
42
0.41421356237309503
0
ENDSEC
0
SECTION
2
OBJECTS
0
DICTIONARY
5
C
100
AcDbDictionary
3
ACAD_GROUP
350
D
3
ACAD_MLINESTYLE
350
17
0
DICTIONARY
5
D
100
AcDbDictionary
0
DICTIONARY
5
1A
330
C
100
AcDbDictionary
0
DICTIONARY
5
17
100
AcDbDictionary
0
ENDSEC
0
EOF
