0
SECTION
2
HEADER
9
$INSUNITS
70
4
9
$ACADVER
1
AC1014
9
$HANDSEED
5
FFFF
0
ENDSEC
0
SECTION
2
TABLES
0
TABLE
2
VPORT
5
8
100
AcDbSymbolTable
0
ENDTAB
0
TABLE
2
LTYPE
5
5
100
AcDbSymbolTable
0
LTYPE
5
14
100
AcDbSymbolTableRecord
100
AcDbLinetypeTableRecord
2
BYBLOCK
70
0
0
LTYPE
5
15
100
AcDbSymbolTableRecord
100
AcDbLinetypeTableRecord
2
BYLAYER
70
0
0
ENDTAB
0
TABLE
2
LAYER
5
2
100
AcDbSymbolTable
70
2
0
LAYER
5
50
100
AcDbSymbolTableRecord
100
AcDbLayerTableRecord
2
0
70
0
6
CONTINUOUS
0
ENDTAB
0
TABLE
2
STYLE
5
3
100
AcDbSymbolTable
70
1
0
STYLE
5
11
100
AcDbSymbolTableRecord
100
AcDbTextStyleTableRecord
2
STANDARD
70
0
0
ENDTAB
0
TABLE
2
VIEW
5
6
100
AcDbSymbolTable
70
0
0
ENDTAB
0
TABLE
2
UCS
5
7
100
AcDbSymbolTable
70
0
0
ENDTAB
0
TABLE
2
APPID
5
9
100
AcDbSymbolTable
70
2
0
APPID
5
12
100
AcDbSymbolTableRecord
100
AcDbRegAppTableRecord
2
ACAD
70
0
0
ENDTAB
0
TABLE
2
DIMSTYLE
5
A
100
AcDbSymbolTable
70
1
0
ENDTAB
0
TABLE
2
BLOCK_RECORD
5
1
100
AcDbSymbolTable
70
1
0
BLOCK_RECORD
5
1F
100
AcDbSymbolTableRecord
100
AcDbBlockTableRecord
2
*MODEL_SPACE
0
BLOCK_RECORD
5
1B
100
AcDbSymbolTableRecord
100
AcDbBlockTableRecord
2
*PAPER_SPACE
0
ENDTAB
0
ENDSEC
0
SECTION
2
BLOCKS
0
BLOCK
5
20
100
AcDbEntity
100
AcDbBlockBegin
2
*MODEL_SPACE
0
ENDBLK
5
21
100
AcDbEntity
100
AcDbBlockEnd
0
BLOCK
5
1C
100
AcDbEntity
100
AcDbBlockBegin
2
*PAPER_SPACE
0
ENDBLK
5
1D
100
AcDbEntity
100
AcDbBlockEnd
0
ENDSEC
0
SECTION
2
ENTITIES
0
LWPOLYLINE
5
100
100
AcDbEntity
8
0
100
AcDbPolyline
90
38
70
1
43
0.0
10
-94.27500000000002
20
48.874999999999993
42
-0.41421356237309764
10
-95.275000000000006
20
47.875
10
-229.625
20
47.875000000000014
42
-0.41421356237310542
10
-230.625
20
48.874999999999993
10
-230.62500000000003
20
87.974999999999994
42
-0.41421356237310542
10
-229.625
20
88.975000000000009
10
-226.86199999999999
20
88.975000000000009
42
0.41421356237309503
10
-225.86199999999997
20
89.975000000000009
10
-225.86200000000002
20
107.02500000000001
42
-0.41421356237310542
10
-224.86199999999997
20
108.02500000000002
10
-217.33700000000002
20
108.02500000000002
42
0.41421356237309503
10
-216.33700000000002
20
109.02500000000002
10
-216.33700000000005
20
135.53008952175847
42
-0.37091779937844227
10
-215.48648607343142
20
136.51885335293861
10
-152.18706873435144
20
146.08876383118013
42
-0.037529726479310195
10
-152.03758266092001
20
146.09999999999999
10
-133.33643435917389
20
146.10000000000002
42
0.066984956688995526
10
-133.07207445416395
20
146.13557590209331
10
-114.01102352181121
20
151.36043250283967
42
0.064941833873485427
10
-113.77248984851752
20
151.46050826303701
10
-97.121237125859636
20
161.14850984712888
42
-0.41484267749900433
10
-95.752917262074874
20
160.78519777996121
10
-80.951122780139869
20
135.21846185661903
42
-0.41447028431255112
10
-81.316271467746404
20
133.8515605128328
10
-98.537277597874635
20
123.90164585986977
42
0.26786329724367247
10
-99.037000000000006
20
123.03578078662522
10
-99.037000000000006
20
109.02500000000003
42
0.41421356237309503
10
-98.037000000000006
20
108.02500000000002
10
-90.512499999999989
20
108.02500000000002
42
-0.41421356237309503
10
-89.512500000000003
20
107.02500000000002
10
-89.512500000000003
20
89.975000000000023
42
0.41421356237309503
10
-88.512500000000003
20
88.975000000000009
10
-85.75
20
88.975000000000009
42
-0.41421356237309503
10
-84.75
20
87.975000000000009
10
-84.750000000000014
20
67.924999999999997
42
-0.41421356237309764
10
-85.75
20
66.924999999999997
10
-93.275000000000006
20
66.924999999999997
42
0.41421356237309503
10
-94.275000000000006
20
65.924999999999997
0
CIRCLE
5
101
100
AcDbEntity
8
0
100
AcDbCircle
10
-157.30000000000001
20
136.90000000000001
30
0
40
1.0999999999999943
210
0
220
-0
230
1
0
CIRCLE
5
102
100
AcDbEntity
8
0
100
AcDbCircle
10
-191.02499999999998
20
68.424999999999997
30
0
40
1.0999999999999943
210
0
220
-0
230
1
0
CIRCLE
5
103
100
AcDbEntity
8
0
100
AcDbCircle
10
-162.45000000000002
20
87.474999999999994
30
0
40
1.0999999999999943
210
0
220
-0
230
1
0
CIRCLE
5
104
100
AcDbEntity
8
0
100
AcDbCircle
10
-107.30000000000001
20
136.90000000000001
30
0
40
1.0999999999999943
210
0
220
-0
230
1
0
CIRCLE
5
105
100
AcDbEntity
8
0
100
AcDbCircle
10
-198.30000000000001
20
130.90000000000001
30
0
40
1.0999999999999943
210
0
220
-0
230
1
0
CIRCLE
5
106
100
AcDbEntity
8
0
100
AcDbCircle
10
-133.875
20
68.424999999999997
30
0
40
1.0999999999999943
210
0
220
-0
230
1
0
CIRCLE
5
107
100
AcDbEntity
8
0
100
AcDbCircle
10
-205.3125
20
106.52500000000001
30
0
40
1.0999999999999943
210
0
220
-0
230
1
0
CIRCLE
5
108
100
AcDbEntity
8
0
100
AcDbCircle
10
-110.06250000000001
20
106.52500000000001
30
0
40
1.0999999999999943
210
0
220
-0
230
1
0
LWPOLYLINE
5
109
100
AcDbEntity
8
0
100
AcDbPolyline
90
8
70
1
43
0.0
10
-208.9619998822256
20
84.900400000000047
10
-220.86299988222561
20
84.900400000000047
42
0.41421359686840137
10
-221.86300000000003
20
83.900400000000019
10
-221.86300000000003
20
72.100399999999993
42
0.41421353431746055
10
-220.86300009578798
20
71.100399999999993
10
-208.96200009578797
20
71.100399999999993
42
0.41421359042874567
10
-207.96199999999999
20
72.100399999999993
10
-207.96199999999999
20
83.900400000000019
42
0.41421352787776872
0
LWPOLYLINE
5
110
100
AcDbEntity
8
0
100
AcDbPolyline
90
8
70
1
43
0.0
10
-106.79159305440068
20
144.21821604408944
10
-100.892460286134
20
133.99861541325168
42
0.41421024850695126
10
-99.526475752442352
20
133.63246841381658
10
-89.306865483696569
20
139.53160674536753
42
0.41421356253625702
10
-88.940724145596519
20
140.89760107978051
10
-94.839865180226326
20
151.11721603090609
42
0.41420631962524679
10
-96.205844221282035
20
151.48334688551125
10
-106.42545161836098
20
145.58421021155615
42
0.41421350624572784
0
LWPOLYLINE
5
111
100
AcDbEntity
8
0
100
AcDbPolyline
90
8
70
1
43
0.0
10
-148.37300000000002
20
128.25
10
-136.57299999999998
20
128.25
42
0.41421356237309503
10
-135.57300000000001
20
129.25
10
-135.57300000000001
20
141.05000000000001
42
0.41421356237310542
10
-136.57299999999998
20
142.05000000000001
10
-148.37300000000002
20
142.05000000000001
42
0.41421356237309503
10
-149.37299999999999
20
141.05000000000001
10
-149.37299999999999
20
129.25
42
0.41421356237309503
0
LINE
5
112
100
AcDbEntity
8
0
100
AcDbLine
10
-115.68877391833749
20
145.19278818315766
30
0
11
-112.63350486281885
21
133.79515964986834
31
0
0
LINE
5
113
100
AcDbEntity
8
0
100
AcDbLine
10
-128.31118674056708
20
142.84448000530824
30
0
11
-116.91360611709008
21
145.89973621748675
31
0
0
LWPOLYLINE
5
114
100
AcDbEntity
8
0
100
AcDbPolyline
90
8
70
1
43
0.0
10
-220.76200000000003
20
90.150399999999991
10
-208.96199999999999
20
90.150399999999991
42
0.41421356237308982
10
-207.96199999999999
20
91.150399999999991
10
-207.96199999999999
20
102.95040000000002
42
0.41421356237308982
10
-208.96199999999999
20
103.95040000000002
10
-220.76200000000003
20
103.95040000000002
42
0.41421356237310025
10
-221.762
20
102.95040000000002
10
-221.762
20
91.150399999999991
42
0.41421356237310025
0
LINE
5
115
100
AcDbEntity
8
0
100
AcDbLine
10
-225.52449999999999
20
65.850400000000008
30
0
11
-213.72450000000001
21
65.850400000000008
31
0
0
LWPOLYLINE
5
116
100
AcDbEntity
8
0
100
AcDbPolyline
90
8
70
1
43
0.0
10
-197.94950000000003
20
83.900400000000019
10
-197.94950000000003
20
72.100399999999993
42
0.41421356237310542
10
-196.94950000000006
20
71.100399999999993
10
-185.14949999999999
20
71.100399999999993
42
0.41421356237310542
10
-184.14950000000002
20
72.100399999999993
10
-184.14950000000002
20
83.900400000000019
42
0.41421356237310542
10
-185.14949999999999
20
84.900400000000019
10
-196.94950000000006
20
84.900400000000019
42
0.41421356237310542
0
LWPOLYLINE
5
117
100
AcDbEntity
8
0
100
AcDbPolyline
90
8
70
1
43
0.0
10
-201.71200000000005
20
90.150399999999991
10
-189.91199999999998
20
90.150399999999991
42
0.41421356237308982
10
-188.91200000000001
20
91.150399999999991
10
-188.91200000000001
20
102.95040000000002
42
0.41421356237308982
10
-189.91199999999998
20
103.95040000000002
10
-201.71200000000005
20
103.95040000000002
42
0.41421356237308982
10
-202.71200000000005
20
102.95040000000002
10
-202.71200000000005
20
91.150399999999991
42
0.41421356237308982
0
LINE
5
118
100
AcDbEntity
8
0
100
AcDbLine
10
-206.47450000000003
20
65.850400000000008
30
0
11
-194.67450000000002
21
65.850400000000008
31
0
0
LWPOLYLINE
5
119
100
AcDbEntity
8
0
100
AcDbPolyline
90
8
70
1
43
0.0
10
-211.23700000000008
20
109.2004
10
-199.43700000000001
20
109.2004
42
0.41421356237308982
10
-198.43700000000001
20
110.2004
10
-198.43700000000001
20
122.00040000000003
42
0.41421356237308982
10
-199.43700000000001
20
123.00040000000003
10
-211.23700000000008
20
123.00040000000003
42
0.41421356237308982
10
-212.23700000000005
20
122.00040000000003
10
-212.23700000000005
20
110.2004
42
0.41421356237308982
0
LWPOLYLINE
5
120
100
AcDbEntity
8
0
100
AcDbPolyline
90
8
70
1
43
0.0
10
-178.89950000000002
20
83.900400000000019
10
-178.89950000000002
20
72.100399999999993
42
0.41421356237310542
10
-177.89950000000005
20
71.100399999999993
10
-166.09949999999998
20
71.100399999999993
42
0.41421356237310542
10
-165.09950000000001
20
72.100399999999993
10
-165.09950000000001
20
83.900400000000019
42
0.41421356237310542
10
-166.09949999999998
20
84.900400000000019
10
-177.89950000000005
20
84.900400000000019
42
0.41421356237310542
0
LWPOLYLINE
5
121
100
AcDbEntity
8
0
100
AcDbPolyline
90
8
70
1
43
0.0
10
-182.66200000000003
20
90.150399999999991
10
-170.86199999999997
20
90.150399999999991
42
0.41421356237308982
10
-169.86199999999999
20
91.150399999999991
10
-169.86199999999999
20
102.95040000000002
42
0.41421356237308982
10
-170.86199999999997
20
103.95040000000002
10
-182.66200000000003
20
103.95040000000002
42
0.41421356237308982
10
-183.66200000000003
20
102.95040000000002
10
-183.66200000000003
20
91.150399999999991
42
0.41421356237308982
0
LINE
5
122
100
AcDbEntity
8
0
100
AcDbLine
10
-187.42450000000002
20
65.850400000000008
30
0
11
-175.62450000000001
21
65.850400000000008
31
0
0
LWPOLYLINE
5
123
100
AcDbEntity
8
0
100
AcDbPolyline
90
8
70
1
43
0.0
10
-192.18700000000007
20
109.2004
10
-180.387
20
109.2004
42
0.41421356237308982
10
-179.387
20
110.2004
10
-179.387
20
122.00040000000003
42
0.41421356237308982
10
-180.387
20
123.00040000000003
10
-192.18700000000007
20
123.00040000000003
42
0.41421356237308982
10
-193.18700000000004
20
122.00040000000003
10
-193.18700000000004
20
110.2004
42
0.41421356237308982
0
LWPOLYLINE
5
124
100
AcDbEntity
8
0
100
AcDbPolyline
90
8
70
1
43
0.0
10
-159.84950000000001
20
83.900400000000019
10
-159.84950000000001
20
72.100399999999993
42
0.41421356237309764
10
-158.84950000000003
20
71.100399999999993
10
-147.04949999999999
20
71.100399999999993
42
0.41421356237309764
10
-146.04949999999999
20
72.100399999999993
10
-146.04949999999999
20
83.900400000000019
42
0.41421356237310542
10
-147.04949999999999
20
84.900400000000019
10
-158.84950000000003
20
84.900400000000019
42
0.41421356237310542
0
LWPOLYLINE
5
125
100
AcDbEntity
8
0
100
AcDbPolyline
90
8
70
1
43
0.0
10
-163.61200000000002
20
90.150399999999991
10
-151.81200000000001
20
90.150399999999991
42
0.41421356237309503
10
-150.81199999999998
20
91.150399999999991
10
-150.81199999999998
20
102.95040000000002
42
0.41421356237309503
10
-151.81200000000001
20
103.95040000000002
10
-163.61200000000002
20
103.95040000000002
42
0.41421356237308982
10
-164.61200000000002
20
102.95040000000002
10
-164.61200000000002
20
91.150399999999991
42
0.41421356237308982
0
LINE
5
126
100
AcDbEntity
8
0
100
AcDbLine
10
-168.37450000000001
20
65.850400000000008
30
0
11
-156.5745
21
65.850400000000008
31
0
0
LWPOLYLINE
5
127
100
AcDbEntity
8
0
100
AcDbPolyline
90
8
70
1
43
0.0
10
-173.13700000000006
20
109.2004
10
-161.33700000000002
20
109.2004
42
0.41421356237310025
10
-160.33699999999999
20
110.2004
10
-160.33699999999999
20
122.00040000000003
42
0.41421356237310025
10
-161.33700000000002
20
123.00040000000003
10
-173.13700000000006
20
123.00040000000003
42
0.41421356237308982
10
-174.13700000000003
20
122.00040000000003
10
-174.13700000000003
20
110.2004
42
0.41421356237308982
0
LWPOLYLINE
5
128
100
AcDbEntity
8
0
100
AcDbPolyline
90
8
70
1
43
0.0
10
-140.79950000000002
20
83.900400000000019
10
-140.79950000000002
20
72.100399999999993
42
0.41421356237309764
10
-139.79950000000002
20
71.100399999999993
10
-127.99949999999998
20
71.100399999999993
42
0.41421356237309764
10
-126.9995
20
72.100399999999993
10
-126.9995
20
83.900400000000019
42
0.41421356237310542
10
-127.99949999999998
20
84.900400000000019
10
-139.79950000000002
20
84.900400000000019
42
0.41421356237310542
0
LWPOLYLINE
5
129
100
AcDbEntity
8
0
100
AcDbPolyline
90
8
70
1
43
0.0
10
-144.56200000000001
20
90.150399999999991
10
-132.762
20
90.150399999999991
42
0.41421356237309503
10
-131.762
20
91.150399999999991
10
-131.762
20
102.95040000000002
42
0.41421356237309503
10
-132.762
20
103.95040000000002
10
-144.56200000000001
20
103.95040000000002
42
0.41421356237309503
10
-145.56200000000001
20
102.95040000000002
10
-145.56200000000001
20
91.150399999999991
42
0.41421356237309503
0
LINE
5
130
100
AcDbEntity
8
0
100
AcDbLine
10
-149.3245
20
65.850400000000008
30
0
11
-137.52450000000002
21
65.850400000000008
31
0
0
LWPOLYLINE
5
131
100
AcDbEntity
8
0
100
AcDbPolyline
90
8
70
1
43
0.0
10
-154.08700000000005
20
109.2004
10
-142.28700000000001
20
109.2004
42
0.41421356237309503
10
-141.28700000000001
20
110.2004
10
-141.28700000000001
20
122.00040000000003
42
0.41421356237309503
10
-142.28700000000001
20
123.00040000000003
10
-154.08700000000005
20
123.00040000000003
42
0.41421356237309503
10
-155.08700000000002
20
122.00040000000003
10
-155.08700000000002
20
110.2004
42
0.41421356237309503
0
LWPOLYLINE
5
132
100
AcDbEntity
8
0
100
AcDbPolyline
90
8
70
1
43
0.0
10
-121.74950000000003
20
83.900400000000019
10
-121.74950000000003
20
72.100399999999993
42
0.41421356237309764
10
-120.74950000000001
20
71.100399999999993
10
-108.94949999999997
20
71.100399999999993
42
0.41421356237309764
10
-107.9495
20
72.100399999999993
10
-107.9495
20
83.900400000000019
42
0.41421356237310542
10
-108.94949999999997
20
84.900400000000019
10
-120.74950000000001
20
84.900400000000019
42
0.41421356237310542
0
LWPOLYLINE
5
133
100
AcDbEntity
8
0
100
AcDbPolyline
90
8
70
1
43
0.0
10
-125.51200000000001
20
90.150399999999991
10
-113.71199999999999
20
90.150399999999991
42
0.41421356237309503
10
-112.712
20
91.150399999999991
10
-112.712
20
102.95040000000002
42
0.41421356237309503
10
-113.71199999999999
20
103.95040000000002
10
-125.51200000000001
20
103.95040000000002
42
0.41421356237309503
10
-126.51200000000003
20
102.95040000000002
10
-126.51200000000003
20
91.150399999999991
42
0.41421356237309503
0
LINE
5
134
100
AcDbEntity
8
0
100
AcDbLine
10
-130.27450000000002
20
65.850400000000008
30
0
11
-118.47450000000002
21
65.850400000000008
31
0
0
LWPOLYLINE
5
135
100
AcDbEntity
8
0
100
AcDbPolyline
90
8
70
1
43
0.0
10
-135.03700000000003
20
109.2004
10
-123.23699999999999
20
109.2004
42
0.41421356237309503
10
-122.23700000000001
20
110.2004
10
-122.23700000000001
20
122.00040000000003
42
0.41421356237309503
10
-123.23699999999999
20
123.00040000000003
10
-135.03700000000003
20
123.00040000000003
42
0.41421356237309503
10
-136.03700000000003
20
122.00040000000003
10
-136.03700000000003
20
110.2004
42
0.41421356237309503
0
LWPOLYLINE
5
136
100
AcDbEntity
8
0
100
AcDbPolyline
90
8
70
1
43
0.0
10
-102.69950000000001
20
83.900400000000019
10
-102.69950000000001
20
72.100399999999993
42
0.41421356237309503
10
-101.69950000000001
20
71.100399999999993
10
-89.899499999999989
20
71.100399999999993
42
0.41421356237309503
10
-88.899499999999989
20
72.100399999999993
10
-88.899499999999989
20
83.900400000000019
42
0.41421356237309503
10
-89.899499999999989
20
84.900400000000019
10
-101.69950000000001
20
84.900400000000019
42
0.41421356237309503
0
LWPOLYLINE
5
137
100
AcDbEntity
8
0
100
AcDbPolyline
90
8
70
1
43
0.0
10
-106.46200000000002
20
90.150399999999991
10
-94.661999999999992
20
90.150399999999991
42
0.41421356237309503
10
-93.661999999999992
20
91.150399999999991
10
-93.661999999999992
20
102.95040000000002
42
0.41421356237309503
10
-94.661999999999992
20
103.95040000000002
10
-106.46200000000002
20
103.95040000000002
42
0.41421356237309503
10
-107.46200000000002
20
102.95040000000002
10
-107.46200000000002
20
91.150399999999991
42
0.41421356237309503
0
LINE
5
138
100
AcDbEntity
8
0
100
AcDbLine
10
-111.22450000000001
20
65.850400000000008
30
0
11
-99.424500000000009
21
65.850400000000008
31
0
0
LWPOLYLINE
5
139
100
AcDbEntity
8
0
100
AcDbPolyline
90
8
70
1
43
0.0
10
-115.98700000000002
20
109.2004
10
-104.187
20
109.2004
42
0.41421356237309503
10
-103.187
20
110.2004
10
-103.187
20
122.00040000000003
42
0.41421356237309503
10
-104.187
20
123.00040000000003
10
-115.98700000000002
20
123.00040000000003
42
0.41421356237309503
10
-116.98700000000002
20
122.00040000000003
10
-116.98700000000002
20
110.2004
42
0.41421356237309503
0
LINE
5
140
100
AcDbEntity
8
0
100
AcDbLine
10
-212.72450000000003
20
64.850400000000008
30
0
11
-212.72449999999998
21
53.050399999999996
31
0
0
ARC
5
141
100
AcDbEntity
8
0
100
AcDbCircle
10
-213.72450000000001
20
64.850400000000008
30
0
40
0.99999999999997868
210
0
220
-0
230
1
100
AcDbArc
50
0
51
90
0
ARC
5
142
100
AcDbEntity
8
0
100
AcDbCircle
10
-225.52449999999999
20
64.850400000000008
30
0
40
0.99999999999999645
210
0
220
-0
230
1
100
AcDbArc
50
90
51
180
0
LINE
5
143
100
AcDbEntity
8
0
100
AcDbLine
10
-226.52450000000002
20
53.050399999999996
30
0
11
-226.52450000000002
21
64.850400000000008
31
0
0
LINE
5
144
100
AcDbEntity
8
0
100
AcDbLine
10
-193.67450000000005
20
64.850400000000008
30
0
11
-193.67450000000002
21
53.050399999999996
31
0
0
ARC
5
145
100
AcDbEntity
8
0
100
AcDbCircle
10
-194.67450000000002
20
64.850400000000008
30
0
40
0.99999999999997868
210
0
220
-0
230
1
100
AcDbArc
50
0
51
90
0
ARC
5
146
100
AcDbEntity
8
0
100
AcDbCircle
10
-206.47450000000003
20
64.850400000000008
30
0
40
0.99999999999999645
210
0
220
-0
230
1
100
AcDbArc
50
90
51
180
0
LINE
5
147
100
AcDbEntity
8
0
100
AcDbLine
10
-207.47450000000001
20
53.050399999999996
30
0
11
-207.47450000000001
21
64.850400000000008
31
0
0
LINE
5
148
100
AcDbEntity
8
0
100
AcDbLine
10
-174.62450000000004
20
64.850400000000008
30
0
11
-174.62450000000001
21
53.050399999999996
31
0
0
ARC
5
149
100
AcDbEntity
8
0
100
AcDbCircle
10
-175.62450000000001
20
64.850400000000008
30
0
40
0.99999999999997868
210
0
220
-0
230
1
100
AcDbArc
50
0
51
90
0
ARC
5
150
100
AcDbEntity
8
0
100
AcDbCircle
10
-187.42450000000002
20
64.850400000000008
30
0
40
0.99999999999999645
210
0
220
-0
230
1
100
AcDbArc
50
90
51
180
0
LINE
5
151
100
AcDbEntity
8
0
100
AcDbLine
10
-188.42449999999999
20
53.050399999999996
30
0
11
-188.42449999999999
21
64.850400000000008
31
0
0
LINE
5
152
100
AcDbEntity
8
0
100
AcDbLine
10
-155.57450000000003
20
64.850400000000008
30
0
11
-155.5745
21
53.050399999999996
31
0
0
ARC
5
153
100
AcDbEntity
8
0
100
AcDbCircle
10
-156.5745
20
64.850400000000008
30
0
40
0.99999999999997868
210
0
220
-0
230
1
100
AcDbArc
50
0
51
90
0
ARC
5
154
100
AcDbEntity
8
0
100
AcDbCircle
10
-168.37450000000001
20
64.850400000000008
30
0
40
0.99999999999999645
210
0
220
-0
230
1
100
AcDbArc
50
90
51
180
0
LINE
5
155
100
AcDbEntity
8
0
100
AcDbLine
10
-169.37450000000001
20
53.050399999999996
30
0
11
-169.37450000000001
21
64.850400000000008
31
0
0
LINE
5
156
100
AcDbEntity
8
0
100
AcDbLine
10
-136.52450000000002
20
64.850400000000008
30
0
11
-136.52449999999999
21
53.050399999999996
31
0
0
ARC
5
157
100
AcDbEntity
8
0
100
AcDbCircle
10
-137.52450000000002
20
64.850400000000008
30
0
40
0.99999999999999645
210
0
220
-0
230
1
100
AcDbArc
50
0
51
90
0
ARC
5
158
100
AcDbEntity
8
0
100
AcDbCircle
10
-149.3245
20
64.850400000000008
30
0
40
0.99999999999999645
210
0
220
-0
230
1
100
AcDbArc
50
90
51
180
0
LINE
5
159
100
AcDbEntity
8
0
100
AcDbLine
10
-150.3245
20
53.050399999999996
30
0
11
-150.3245
21
64.850400000000008
31
0
0
LINE
5
160
100
AcDbEntity
8
0
100
AcDbLine
10
-117.47450000000001
20
64.850400000000008
30
0
11
-117.47450000000001
21
53.050399999999996
31
0
0
ARC
5
161
100
AcDbEntity
8
0
100
AcDbCircle
10
-118.47450000000002
20
64.850400000000008
30
0
40
1.0000000000000142
210
0
220
-0
230
1
100
AcDbArc
50
0
51
90
0
ARC
5
162
100
AcDbEntity
8
0
100
AcDbCircle
10
-130.27450000000002
20
64.850400000000008
30
0
40
0.99999999999999645
210
0
220
-0
230
1
100
AcDbArc
50
90
51
180
0
LINE
5
163
100
AcDbEntity
8
0
100
AcDbLine
10
-131.27449999999999
20
53.050399999999996
30
0
11
-131.27449999999999
21
64.850400000000008
31
0
0
LINE
5
164
100
AcDbEntity
8
0
100
AcDbLine
10
-98.424500000000009
20
64.850400000000008
30
0
11
-98.424499999999995
21
53.050399999999996
31
0
0
ARC
5
165
100
AcDbEntity
8
0
100
AcDbCircle
10
-99.424500000000009
20
64.850400000000008
30
0
40
0.99999999999999645
210
0
220
-0
230
1
100
AcDbArc
50
0
51
90
0
ARC
5
166
100
AcDbEntity
8
0
100
AcDbCircle
10
-111.22450000000001
20
64.850400000000008
30
0
40
0.99999999999999645
210
0
220
-0
230
1
100
AcDbArc
50
90
51
180
0
LINE
5
167
100
AcDbEntity
8
0
100
AcDbLine
10
-112.22450000000001
20
53.050399999999996
30
0
11
-112.22450000000001
21
64.850400000000008
31
0
0
ARC
5
168
100
AcDbEntity
8
0
100
AcDbCircle
10
-213.72449999999998
20
53.050399999999996
30
0
40
0.99999999999999645
210
0
220
0
230
1
100
AcDbArc
50
-90.000000000001634
51
0
0
LINE
5
169
100
AcDbEntity
8
0
100
AcDbLine
10
-213.72450000000001
20
52.050400000000003
30
0
11
-225.52449999999999
21
52.050400000000003
31
0
0
ARC
5
170
100
AcDbEntity
8
0
100
AcDbCircle
10
-225.52450000000005
20
53.050399999999996
30
0
40
0.99999999999997868
210
0
220
0
230
1
100
AcDbArc
50
180
51
270.00000000000324
0
ARC
5
171
100
AcDbEntity
8
0
100
AcDbCircle
10
-194.67449999999997
20
53.050399999999996
30
0
40
0.99999999999999645
210
0
220
0
230
1
100
AcDbArc
50
-90.000000000001634
51
0
0
LINE
5
172
100
AcDbEntity
8
0
100
AcDbLine
10
-194.67449999999999
20
52.050400000000003
30
0
11
-206.47450000000003
21
52.050400000000003
31
0
0
ARC
5
173
100
AcDbEntity
8
0
100
AcDbCircle
10
-206.47450000000003
20
53.050399999999982
30
0
40
0.99999999999997868
210
0
220
0
230
1
100
AcDbArc
50
180
51
270
0
ARC
5
174
100
AcDbEntity
8
0
100
AcDbCircle
10
-175.62449999999995
20
53.050399999999996
30
0
40
0.99999999999999645
210
0
220
0
230
1
100
AcDbArc
50
-90.000000000001634
51
0
0
LINE
5
175
100
AcDbEntity
8
0
100
AcDbLine
10
-175.62449999999998
20
52.050400000000003
30
0
11
-187.42450000000002
21
52.050400000000003
31
0
0
ARC
5
176
100
AcDbEntity
8
0
100
AcDbCircle
10
-187.42450000000002
20
53.050399999999982
30
0
40
0.99999999999997868
210
0
220
0
230
1
100
AcDbArc
50
180
51
270
0
ARC
5
177
100
AcDbEntity
8
0
100
AcDbCircle
10
-156.5745
20
53.050399999999989
30
0
40
0.99999999999998757
210
0
220
0
230
1
100
AcDbArc
50
-90
51
0
0
LINE
5
178
100
AcDbEntity
8
0
100
AcDbLine
10
-156.5745
20
52.050400000000003
30
0
11
-168.37450000000001
21
52.050400000000003
31
0
0
ARC
5
179
100
AcDbEntity
8
0
100
AcDbCircle
10
-168.37450000000001
20
53.050399999999982
30
0
40
1.0000000000000142
210
0
220
0
230
1
100
AcDbArc
50
180
51
270
0
ARC
5
180
100
AcDbEntity
8
0
100
AcDbCircle
10
-137.52449999999999
20
53.050399999999989
30
0
40
0.99999999999998757
210
0
220
0
230
1
100
AcDbArc
50
-90
51
0
0
LINE
5
181
100
AcDbEntity
8
0
100
AcDbLine
10
-137.52449999999999
20
52.050400000000003
30
0
11
-149.3245
21
52.050400000000003
31
0
0
ARC
5
182
100
AcDbEntity
8
0
100
AcDbCircle
10
-149.3245
20
53.050399999999996
30
0
40
0.99999999999999645
210
0
220
0
230
1
100
AcDbArc
50
180
51
270
0
ARC
5
183
100
AcDbEntity
8
0
100
AcDbCircle
10
-118.47449999999998
20
53.050399999999989
30
0
40
0.99999999999998757
210
0
220
0
230
1
100
AcDbArc
50
-90
51
0
0
LINE
5
184
100
AcDbEntity
8
0
100
AcDbLine
10
-118.47449999999998
20
52.050400000000003
30
0
11
-130.27450000000002
21
52.050400000000003
31
0
0
ARC
5
185
100
AcDbEntity
8
0
100
AcDbCircle
10
-130.27450000000002
20
53.050399999999989
30
0
40
0.99999999999997868
210
0
220
0
230
1
100
AcDbArc
50
180
51
270
0
ARC
5
186
100
AcDbEntity
8
0
100
AcDbCircle
10
-99.424499999999995
20
53.050399999999996
30
0
40
0.99999999999999645
210
0
220
0
230
1
100
AcDbArc
50
-90
51
0
0
LINE
5
187
100
AcDbEntity
8
0
100
AcDbLine
10
-99.424499999999995
20
52.050400000000003
30
0
11
-111.22450000000001
21
52.050400000000003
31
0
0
ARC
5
188
100
AcDbEntity
8
0
100
AcDbCircle
10
-111.22450000000001
20
53.050399999999989
30
0
40
0.99999999999999645
210
0
220
0
230
1
100
AcDbArc
50
180
51
270
0
ARC
5
189
100
AcDbEntity
8
0
100
AcDbCircle
10
-116.65466590151894
20
144.93384286687296
30
0
40
1.0000000000000011
210
0
220
-0
230
1
100
AcDbArc
50
15.007490153333405
51
105.00718758414661
0
LINE
5
190
100
AcDbEntity
8
0
100
AcDbLine
10
-113.34049413889113
20
132.57033747696775
30
0
11
-124.73806793613761
21
129.51508309455878
31
0
0
ARC
5
191
100
AcDbEntity
8
0
100
AcDbCircle
10
-124.99700725038392
20
130.48097668680259
30
0
40
0.9999999999999889
210
0
220
0
230
1
100
AcDbArc
50
195.00675291735914
51
285.00713411850967
0
LINE
5
192
100
AcDbEntity
8
0
100
AcDbLine
10
-125.96290256538531
20
130.22204379885994
30
0
11
-129.01816435051063
21
141.61964521147422
31
0
0
ARC
5
193
100
AcDbEntity
8
0
100
AcDbCircle
10
-128.05226966598661
20
141.8785804512703
30
0
40
0.99999999999999356
210
0
220
0
230
1
100
AcDbArc
50
105.00581488928189
51
195.00689242659664
0
ARC
5
194
100
AcDbEntity
8
0
100
AcDbCircle
10
-113.59940348591621
20
133.53623910240535
30
0
40
0.99999999999996403
210
0
220
0
230
1
100
AcDbArc
50
-74.994643497754751
51
15.006020895804236
0
ENDSEC
0
SECTION
2
OBJECTS
0
DICTIONARY
5
C
100
AcDbDictionary
3
ACAD_GROUP
350
D
3
ACAD_MLINESTYLE
350
17
0
DICTIONARY
5
D
100
AcDbDictionary
0
DICTIONARY
5
1A
330
C
100
AcDbDictionary
0
DICTIONARY
5
17
100
AcDbDictionary
0
ENDSEC
0
EOF
