0
SECTION
2
HEADER
9
$INSUNITS
70
4
9
$ACADVER
1
AC1014
9
$HANDSEED
5
FFFF
0
ENDSEC
0
SECTION
2
TABLES
0
TABLE
2
VPORT
5
8
100
AcDbSymbolTable
0
ENDTAB
0
TABLE
2
LTYPE
5
5
100
AcDbSymbolTable
0
LTYPE
5
14
100
AcDbSymbolTableRecord
100
AcDbLinetypeTableRecord
2
BYBLOCK
70
0
0
LTYPE
5
15
100
AcDbSymbolTableRecord
100
AcDbLinetypeTableRecord
2
BYLAYER
70
0
0
ENDTAB
0
TABLE
2
LAYER
5
2
100
AcDbSymbolTable
70
2
0
LAYER
5
50
100
AcDbSymbolTableRecord
100
AcDbLayerTableRecord
2
0
70
0
6
CONTINUOUS
0
ENDTAB
0
TABLE
2
STYLE
5
3
100
AcDbSymbolTable
70
1
0
STYLE
5
11
100
AcDbSymbolTableRecord
100
AcDbTextStyleTableRecord
2
STANDARD
70
0
0
ENDTAB
0
TABLE
2
VIEW
5
6
100
AcDbSymbolTable
70
0
0
ENDTAB
0
TABLE
2
UCS
5
7
100
AcDbSymbolTable
70
0
0
ENDTAB
0
TABLE
2
APPID
5
9
100
AcDbSymbolTable
70
2
0
APPID
5
12
100
AcDbSymbolTableRecord
100
AcDbRegAppTableRecord
2
ACAD
70
0
0
ENDTAB
0
TABLE
2
DIMSTYLE
5
A
100
AcDbSymbolTable
70
1
0
ENDTAB
0
TABLE
2
BLOCK_RECORD
5
1
100
AcDbSymbolTable
70
1
0
BLOCK_RECORD
5
1F
100
AcDbSymbolTableRecord
100
AcDbBlockTableRecord
2
*MODEL_SPACE
0
BLOCK_RECORD
5
1B
100
AcDbSymbolTableRecord
100
AcDbBlockTableRecord
2
*PAPER_SPACE
0
ENDTAB
0
ENDSEC
0
SECTION
2
BLOCKS
0
BLOCK
5
20
100
AcDbEntity
100
AcDbBlockBegin
2
*MODEL_SPACE
0
ENDBLK
5
21
100
AcDbEntity
100
AcDbBlockEnd
0
BLOCK
5
1C
100
AcDbEntity
100
AcDbBlockBegin
2
*PAPER_SPACE
0
ENDBLK
5
1D
100
AcDbEntity
100
AcDbBlockEnd
0
ENDSEC
0
SECTION
2
ENTITIES
0
LWPOLYLINE
5
100
100
AcDbEntity
8
0
100
AcDbPolyline
90
38
70
1
43
0.0
10
-94.27500000000002
20
48.874999999999993
42
-0.41421356237309764
10
-95.275000000000006
20
47.875
10
-229.625
20
47.875000000000014
42
-0.41421356237310542
10
-230.625
20
48.874999999999993
10
-230.62500000000003
20
87.974999999999994
42
-0.41421356237310542
10
-229.625
20
88.975000000000009
10
-226.86199999999999
20
88.975000000000009
42
0.41421356237309503
10
-225.86199999999997
20
89.975000000000009
10
-225.86200000000002
20
107.02500000000001
42
-0.41421356237310542
10
-224.86199999999997
20
108.02500000000002
10
-217.33700000000002
20
108.02500000000002
42
0.41421356237309503
10
-216.33700000000002
20
109.02500000000002
10
-216.33700000000005
20
135.53008952175847
42
-0.37091779937844227
10
-215.48648607343142
20
136.51885335293861
10
-152.18706873435144
20
146.08876383118013
42
-0.037529726479310195
10
-152.03758266092001
20
146.09999999999999
10
-133.33643435917389
20
146.10000000000002
42
0.066984956688995526
10
-133.07207445416395
20
146.13557590209331
10
-114.01102352181121
20
151.36043250283967
42
0.064941833873485427
10
-113.77248984851752
20
151.46050826303701
10
-97.121237125859636
20
161.14850984712888
42
-0.41484267749900433
10
-95.752917262074874
20
160.78519777996121
10
-80.951122780139869
20
135.21846185661903
42
-0.41447028431255112
10
-81.316271467746404
20
133.8515605128328
10
-98.537277597874635
20
123.90164585986977
42
0.26786329724367247
10
-99.037000000000006
20
123.03578078662522
10
-99.037000000000006
20
109.02500000000003
42
0.41421356237309503
10
-98.037000000000006
20
108.02500000000002
10
-90.512499999999989
20
108.02500000000002
42
-0.41421356237309503
10
-89.512500000000003
20
107.02500000000002
10
-89.512500000000003
20
89.975000000000023
42
0.41421356237309503
10
-88.512500000000003
20
88.975000000000009
10
-85.75
20
88.975000000000009
42
-0.41421356237309503
10
-84.75
20
87.975000000000009
10
-84.750000000000014
20
67.924999999999997
42
-0.41421356237309764
10
-85.75
20
66.924999999999997
10
-93.275000000000006
20
66.924999999999997
42
0.41421356237309503
10
-94.275000000000006
20
65.924999999999997
0
CIRCLE
5
101
100
AcDbEntity
8
0
100
AcDbCircle
10
-213.58700000000002
20
124.59999999999999
30
0
40
1.0000000000000142
0
CIRCLE
5
102
100
AcDbEntity
8
0
100
AcDbCircle
10
-157.30000000000001
20
136.90000000000001
30
0
40
1.0999999999999943
0
CIRCLE
5
103
100
AcDbEntity
8
0
100
AcDbCircle
10
-191.02499999999998
20
68.424999999999997
30
0
40
1.0999999999999943
0
CIRCLE
5
104
100
AcDbEntity
8
0
100
AcDbCircle
10
-162.45000000000002
20
87.474999999999994
30
0
40
1.0999999999999943
0
CIRCLE
5
105
100
AcDbEntity
8
0
100
AcDbCircle
10
-107.30000000000001
20
136.90000000000001
30
0
40
1.0999999999999943
0
CIRCLE
5
106
100
AcDbEntity
8
0
100
AcDbCircle
10
-198.30000000000001
20
130.90000000000001
30
0
40
1.0999999999999943
0
CIRCLE
5
107
100
AcDbEntity
8
0
100
AcDbCircle
10
-133.875
20
68.424999999999997
30
0
40
1.0999999999999943
0
CIRCLE
5
108
100
AcDbEntity
8
0
100
AcDbCircle
10
-205.3125
20
106.52500000000001
30
0
40
1.0999999999999943
0
CIRCLE
5
109
100
AcDbEntity
8
0
100
AcDbCircle
10
-110.06250000000001
20
106.52500000000001
30
0
40
1.0999999999999943
0
LWPOLYLINE
5
110
100
AcDbEntity
8
0
100
AcDbPolyline
90
8
70
1
43
0.0
10
-203.09949989569191
20
85.000400104308156
10
-221.86300000000003
20
85.00040010430817
42
0.99999999999999989
10
-221.86300000000003
20
83.000400104308142
10
-221.86300000000003
20
73.000399895691899
42
0.99999999999999989
10
-221.86300000000003
20
71.000399895691871
10
-203.09949989569191
20
71.000399895691885
42
0.99999999999999989
10
-203.09949989569191
20
73.000399895691885
10
-203.09949989569191
20
83.00040010430817
42
0.99999999999999989
0
LWPOLYLINE
5
111
100
AcDbEntity
8
0
100
AcDbPolyline
90
9
70
1
43
0.0
10
-108.78623433923507
20
147.47368393542911
10
-101.42900091005059
20
134.72808380271562
42
0.99992298545772162
10
-100.42901451569284
20
132.99602514684608
10
-100.1712915590265
20
133.14479240240968
10
-88.349713337625445
20
139.97018398520476
42
1.0260505963228745
10
-89.304051200678572
20
141.7270547660215
10
-96.661284632927249
20
154.4726549040434
42
0.99999999999999989
10
-97.661137628443569
20
156.20479057637309
10
-109.7860873347514
20
149.2058196077588
42
0.99999999999999989
0
LWPOLYLINE
5
112
100
AcDbEntity
8
0
100
AcDbPolyline
90
8
70
1
43
0.0
10
-149.47299999999998
20
128.15000000000001
10
-135.47300000000001
20
128.15000000000001
42
0.99999999999999989
10
-135.47300000000001
20
130.15000000000001
10
-135.47300000000001
20
140.15000000000003
42
0.99999999999999989
10
-135.47300000000001
20
142.15000000000001
10
-149.47300000000001
20
142.15000000000001
42
0.99999999999999989
10
-149.47300000000001
20
140.15000000000003
10
-149.47300000000001
20
130.15000000000001
42
0.99999999999999989
0
LWPOLYLINE
5
113
100
AcDbEntity
8
0
100
AcDbPolyline
90
10
70
1
43
0.0
10
-115.87699489097778
20
146.28114264387361
42
-0.99999999999999989
10
-115.35915380358746
20
144.34934539565879
10
-112.76994836663603
20
134.69035915458451
42
-0.99999999999999989
10
-112.25210727924575
20
132.75856190636966
10
-112.25220965053417
20
132.75894380069613
10
-125.7747903880381
20
129.13405618896411
10
-125.77468801674968
20
129.13367429463767
42
-0.99999999999999989
10
-126.29252910413996
20
131.06547154285249
10
-128.88173454109142
20
140.72445778392679
42
-0.99999999999999989
10
-129.39957562848167
20
142.65625503214162
0
LWPOLYLINE
5
114
100
AcDbEntity
8
0
100
AcDbPolyline
90
8
70
1
43
0.0
10
-221.86200010430815
20
90.050399895691868
10
-207.86199989569189
20
90.050399895691868
42
0.99999999999999989
10
-207.86199989569189
20
92.050399895691868
10
-207.86199989569189
20
102.05040010430814
42
0.99999999999999989
10
-207.86199989569189
20
104.05040010430812
10
-221.86200010430815
20
104.05040010430812
42
0.99999999999999989
10
-221.86200010430815
20
102.05040010430814
10
-221.86200010430815
20
92.050399895691868
42
0.99999999999999989
0
LWPOLYLINE
5
115
100
AcDbEntity
8
0
100
AcDbPolyline
90
8
70
1
43
0.0
10
-226.62400000000002
20
63.95040012500003
10
-226.62400000000002
20
53.950400000000016
42
1.0142435650516755
10
-226.59571855732167
20
51.950800000000008
10
-212.65278144267867
20
51.950800000000008
42
1.0144971834687484
10
-212.62500000000003
20
53.950399874999995
10
-212.62500000000003
20
63.950400000000016
42
0.99999999999999989
10
-212.62500000000003
20
65.950400000000002
10
-226.62450000000001
20
65.950400000000002
42
1.0002500312657159
0
LWPOLYLINE
5
116
100
AcDbEntity
8
0
100
AcDbPolyline
90
8
70
1
43
0.0
10
-198.04950010430815
20
83.00040010430817
10
-198.04950010430815
20
73.000399895691885
42
0.99999999999999989
10
-198.04950010430815
20
71.000399895691885
10
-184.04949989569189
20
71.000399895691885
42
0.99999999999999989
10
-184.04949989569189
20
73.000399895691885
10
-184.04949989569189
20
83.00040010430817
42
0.99999999999999989
10
-184.04949989569189
20
85.000400104308156
10
-198.04950010430815
20
85.000400104308156
42
0.99999999999999989
0
LWPOLYLINE
5
117
100
AcDbEntity
8
0
100
AcDbPolyline
90
8
70
1
43
0.0
10
-202.81200010430814
20
90.050399895691868
10
-188.81199989569188
20
90.050399895691868
42
0.99999999999999989
10
-188.81199989569188
20
92.050399895691868
10
-188.81199989569188
20
102.05040010430814
42
0.99999999999999989
10
-188.81199989569188
20
104.05040010430812
10
-202.81200010430814
20
104.05040010430812
42
0.99999999999999989
10
-202.81200010430814
20
102.05040010430814
10
-202.81200010430814
20
92.050399895691868
42
0.99999999999999989
0
LWPOLYLINE
5
118
100
AcDbEntity
8
0
100
AcDbPolyline
90
8
70
1
43
0.0
10
-207.57400000000004
20
63.95040012500003
10
-207.57400000000004
20
53.950400000000016
42
1.0142435650517292
10
-207.54571855732166
20
51.950800000000008
10
-193.60278144267869
20
51.950800000000008
42
1.0144971834687289
10
-193.57500000000002
20
53.950399874999995
10
-193.57500000000002
20
63.950400000000016
42
0.99999999999999989
10
-193.57500000000002
20
65.950400000000002
10
-207.57450000000003
20
65.950400000000002
42
1.0002500312657159
0
LWPOLYLINE
5
119
100
AcDbEntity
8
0
100
AcDbPolyline
90
8
70
1
43
0.0
10
-212.33700010430817
20
109.10039989569188
10
-198.33699989569192
20
109.10039989569188
42
0.99999999999999989
10
-198.33699989569192
20
111.10039989569188
10
-198.33699989569192
20
121.10040010430815
42
0.99999999999999989
10
-198.33699989569192
20
123.10040010430814
10
-212.33700010430817
20
123.10040010430814
42
0.99999999999999989
10
-212.33700010430817
20
121.10040010430815
10
-212.33700010430817
20
111.10039989569188
42
0.99999999999999989
0
LWPOLYLINE
5
120
100
AcDbEntity
8
0
100
AcDbPolyline
90
8
70
1
43
0.0
10
-178.99950010430814
20
83.00040010430817
10
-178.99950010430814
20
73.000399895691885
42
0.99999999999999989
10
-178.99950010430814
20
71.000399895691885
10
-164.99949989569188
20
71.000399895691885
42
0.99999999999999989
10
-164.99949989569188
20
73.000399895691885
10
-164.99949989569188
20
83.00040010430817
42
0.99999999999999989
10
-164.99949989569188
20
85.000400104308156
10
-178.99950010430814
20
85.000400104308156
42
0.99999999999999989
0
LWPOLYLINE
5
121
100
AcDbEntity
8
0
100
AcDbPolyline
90
8
70
1
43
0.0
10
-183.76200010430813
20
90.050399895691868
10
-169.76199989569187
20
90.050399895691868
42
0.99999999999999989
10
-169.76199989569187
20
92.050399895691868
10
-169.76199989569187
20
102.05040010430814
42
0.99999999999999989
10
-169.76199989569187
20
104.05040010430812
10
-183.76200010430813
20
104.05040010430812
42
0.99999999999999989
10
-183.76200010430813
20
102.05040010430814
10
-183.76200010430813
20
92.050399895691868
42
0.99999999999999989
0
LWPOLYLINE
5
122
100
AcDbEntity
8
0
100
AcDbPolyline
90
8
70
1
43
0.0
10
-188.52400000000003
20
63.95040012500003
10
-188.52400000000003
20
53.950400000000016
42
1.0142435650517292
10
-188.49571855732165
20
51.950800000000008
10
-174.55278144267868
20
51.950800000000008
42
1.0144971834687289
10
-174.52500000000001
20
53.950399874999995
10
-174.52500000000001
20
63.950400000000016
42
0.99999999999999989
10
-174.52500000000001
20
65.950400000000002
10
-188.52450000000002
20
65.950400000000002
42
1.0002500312657159
0
LWPOLYLINE
5
123
100
AcDbEntity
8
0
100
AcDbPolyline
90
8
70
1
43
0.0
10
-193.28700010430816
20
109.10039989569188
10
-179.28699989569191
20
109.10039989569188
42
0.99999999999999989
10
-179.28699989569191
20
111.10039989569188
10
-179.28699989569191
20
121.10040010430815
42
0.99999999999999989
10
-179.28699989569191
20
123.10040010430814
10
-193.28700010430816
20
123.10040010430814
42
0.99999999999999989
10
-193.28700010430816
20
121.10040010430815
10
-193.28700010430816
20
111.10039989569188
42
0.99999999999999989
0
LWPOLYLINE
5
124
100
AcDbEntity
8
0
100
AcDbPolyline
90
8
70
1
43
0.0
10
-159.94950010430813
20
83.00040010430817
10
-159.94950010430813
20
73.000399895691885
42
0.99999999999999989
10
-159.94950010430813
20
71.000399895691885
10
-145.94949989569187
20
71.000399895691885
42
0.99999999999999989
10
-145.94949989569187
20
73.000399895691885
10
-145.94949989569187
20
83.00040010430817
42
0.99999999999999989
10
-145.94949989569187
20
85.000400104308156
10
-159.94950010430813
20
85.000400104308156
42
0.99999999999999989
0
LWPOLYLINE
5
125
100
AcDbEntity
8
0
100
AcDbPolyline
90
8
70
1
43
0.0
10
-164.71200010430812
20
90.050399895691868
10
-150.71199989569186
20
90.050399895691868
42
0.99999999999999989
10
-150.71199989569186
20
92.050399895691868
10
-150.71199989569186
20
102.05040010430814
42
0.99999999999999989
10
-150.71199989569186
20
104.05040010430812
10
-164.71200010430812
20
104.05040010430812
42
0.99999999999999989
10
-164.71200010430812
20
102.05040010430814
10
-164.71200010430812
20
92.050399895691868
42
0.99999999999999989
0
LWPOLYLINE
5
126
100
AcDbEntity
8
0
100
AcDbPolyline
90
8
70
1
43
0.0
10
-169.47400000000002
20
63.95040012500003
10
-169.47400000000002
20
53.950400000000016
42
1.0142435650517292
10
-169.44571855732164
20
51.950800000000008
10
-155.50278144267867
20
51.950800000000008
42
1.0144971834687484
10
-155.47500000000002
20
53.950399874999995
10
-155.47500000000002
20
63.950400000000016
42
0.99999999999999989
10
-155.47500000000002
20
65.950400000000002
10
-169.47450000000001
20
65.950400000000002
42
1.0002500312657159
0
LWPOLYLINE
5
127
100
AcDbEntity
8
0
100
AcDbPolyline
90
8
70
1
43
0.0
10
-174.23700010430815
20
109.10039989569188
10
-160.23699989569189
20
109.10039989569188
42
0.99999999999999989
10
-160.23699989569189
20
111.10039989569188
10
-160.23699989569189
20
121.10040010430815
42
0.99999999999999989
10
-160.23699989569189
20
123.10040010430814
10
-174.23700010430815
20
123.10040010430814
42
0.99999999999999989
10
-174.23700010430815
20
121.10040010430815
10
-174.23700010430815
20
111.10039989569188
42
0.99999999999999989
0
LWPOLYLINE
5
128
100
AcDbEntity
8
0
100
AcDbPolyline
90
8
70
1
43
0.0
10
-140.89950010430815
20
83.00040010430817
10
-140.89950010430815
20
73.000399895691885
42
0.99999999999999989
10
-140.89950010430815
20
71.000399895691885
10
-126.89949989569187
20
71.000399895691885
42
0.99999999999999989
10
-126.89949989569187
20
73.000399895691885
10
-126.89949989569187
20
83.00040010430817
42
0.99999999999999989
10
-126.89949989569187
20
85.000400104308156
10
-140.89950010430815
20
85.000400104308156
42
0.99999999999999989
0
LWPOLYLINE
5
129
100
AcDbEntity
8
0
100
AcDbPolyline
90
8
70
1
43
0.0
10
-145.66200010430813
20
90.050399895691868
10
-131.66199989569188
20
90.050399895691868
42
0.99999999999999989
10
-131.66199989569188
20
92.050399895691868
10
-131.66199989569188
20
102.05040010430814
42
0.99999999999999989
10
-131.66199989569188
20
104.05040010430812
10
-145.66200010430813
20
104.05040010430812
42
0.99999999999999989
10
-145.66200010430813
20
102.05040010430814
10
-145.66200010430813
20
92.050399895691868
42
0.99999999999999989
0
LWPOLYLINE
5
130
100
AcDbEntity
8
0
100
AcDbPolyline
90
8
70
1
43
0.0
10
-150.42400000000001
20
63.95040012500003
10
-150.42400000000001
20
53.950400000000016
42
1.0142435650516857
10
-150.39571855732166
20
51.950800000000008
10
-136.45278144267868
20
51.950800000000001
42
1.0144971834687424
10
-136.42500000000001
20
53.950399874999995
10
-136.42500000000001
20
63.950400000000016
42
0.99999999999999989
10
-136.42500000000001
20
65.950400000000002
10
-150.42449999999999
20
65.950400000000002
42
1.0002500312657159
0
LWPOLYLINE
5
131
100
AcDbEntity
8
0
100
AcDbPolyline
90
8
70
1
43
0.0
10
-155.18700010430814
20
109.10039989569188
10
-141.18699989569188
20
109.10039989569188
42
0.99999999999999989
10
-141.18699989569188
20
111.10039989569188
10
-141.18699989569188
20
121.10040010430815
42
0.99999999999999989
10
-141.18699989569188
20
123.10040010430814
10
-155.18700010430814
20
123.10040010430814
42
0.99999999999999989
10
-155.18700010430814
20
121.10040010430815
10
-155.18700010430814
20
111.10039989569188
42
0.99999999999999989
0
LWPOLYLINE
5
132
100
AcDbEntity
8
0
100
AcDbPolyline
90
8
70
1
43
0.0
10
-121.84950010430813
20
83.00040010430817
10
-121.84950010430813
20
73.000399895691885
42
0.99999999999999989
10
-121.84950010430813
20
71.000399895691885
10
-107.84949989569188
20
71.000399895691885
42
0.99999999999999989
10
-107.84949989569188
20
73.000399895691885
10
-107.84949989569188
20
83.00040010430817
42
0.99999999999999989
10
-107.84949989569188
20
85.000400104308156
10
-121.84950010430813
20
85.000400104308156
42
0.99999999999999989
0
LWPOLYLINE
5
133
100
AcDbEntity
8
0
100
AcDbPolyline
90
8
70
1
43
0.0
10
-126.61200010430815
20
90.050399895691868
10
-112.61199989569189
20
90.050399895691868
42
0.99999999999999989
10
-112.61199989569189
20
92.050399895691868
10
-112.61199989569189
20
102.05040010430814
42
0.99999999999999989
10
-112.61199989569189
20
104.05040010430812
10
-126.61200010430815
20
104.05040010430812
42
0.99999999999999989
10
-126.61200010430815
20
102.05040010430814
10
-126.61200010430815
20
92.050399895691868
42
0.99999999999999989
0
LWPOLYLINE
5
134
100
AcDbEntity
8
0
100
AcDbPolyline
90
8
70
1
43
0.0
10
-131.374
20
63.95040012500003
10
-131.374
20
53.950400000000016
42
1.0142435650516755
10
-131.34571855732165
20
51.950800000000008
10
-117.40278144267869
20
51.950800000000008
42
1.0144971834687289
10
-117.375
20
53.950399874999995
10
-117.375
20
63.950400000000016
42
0.99999999999999989
10
-117.375
20
65.950400000000002
10
-131.37450000000001
20
65.950400000000002
42
1.0002500312657159
0
LWPOLYLINE
5
135
100
AcDbEntity
8
0
100
AcDbPolyline
90
8
70
1
43
0.0
10
-136.13700010430816
20
109.10039989569188
10
-122.1369998956919
20
109.10039989569188
42
0.99999999999999989
10
-122.1369998956919
20
111.10039989569188
10
-122.1369998956919
20
121.10040010430815
42
0.99999999999999989
10
-122.1369998956919
20
123.10040010430814
10
-136.13700010430816
20
123.10040010430814
42
0.99999999999999989
10
-136.13700010430816
20
121.10040010430815
10
-136.13700010430816
20
111.10039989569188
42
0.99999999999999989
0
LWPOLYLINE
5
136
100
AcDbEntity
8
0
100
AcDbPolyline
90
8
70
1
43
0.0
10
-102.79950010430812
20
83.00040010430817
10
-102.79950010430812
20
73.000399895691885
42
0.99999999999999989
10
-102.79950010430812
20
71.000399895691885
10
-88.799499895691866
20
71.000399895691885
42
0.99999999999999989
10
-88.799499895691866
20
73.000399895691885
10
-88.799499895691866
20
83.00040010430817
42
0.99999999999999989
10
-88.799499895691866
20
85.000400104308156
10
-102.79950010430812
20
85.000400104308156
42
0.99999999999999989
0
LWPOLYLINE
5
137
100
AcDbEntity
8
0
100
AcDbPolyline
90
8
70
1
43
0.0
10
-107.56200010430814
20
90.050399895691868
10
-93.561999895691883
20
90.050399895691868
42
0.99999999999999989
10
-93.561999895691883
20
92.050399895691868
10
-93.561999895691883
20
102.05040010430814
42
0.99999999999999989
10
-93.561999895691883
20
104.05040010430812
10
-107.56200010430814
20
104.05040010430812
42
0.99999999999999989
10
-107.56200010430814
20
102.05040010430814
10
-107.56200010430814
20
92.050399895691868
42
0.99999999999999989
0
LWPOLYLINE
5
138
100
AcDbEntity
8
0
100
AcDbPolyline
90
8
70
1
43
0.0
10
-112.324
20
63.95040012500003
10
-112.324
20
53.950400000000016
42
1.0142435650516815
10
-112.29571855732163
20
51.950800000000008
10
-98.352781442678676
20
51.950800000000001
42
1.0144971834687424
10
-98.325000000000017
20
53.950399874999995
10
-98.325000000000017
20
63.950400000000016
42
0.99999999999999989
10
-98.325000000000017
20
65.950400000000002
10
-112.3245
20
65.950400000000002
42
1.0002500312657159
0
LWPOLYLINE
5
139
100
AcDbEntity
8
0
100
AcDbPolyline
90
8
70
1
43
0.0
10
-117.08700010430815
20
109.10039989569188
10
-103.08699989569189
20
109.10039989569188
42
0.99999999999999989
10
-103.08699989569189
20
111.10039989569188
10
-103.08699989569189
20
121.10040010430815
42
0.99999999999999989
10
-103.08699989569189
20
123.10040010430814
10
-117.08700010430815
20
123.10040010430814
42
0.99999999999999989
10
-117.08700010430815
20
121.10040010430815
10
-117.08700010430815
20
111.10039989569188
42
0.99999999999999989
0
ENDSEC
0
SECTION
2
OBJECTS
0
DICTIONARY
5
C
100
AcDbDictionary
3
ACAD_GROUP
350
D
3
ACAD_MLINESTYLE
350
17
0
DICTIONARY
5
D
100
AcDbDictionary
0
DICTIONARY
5
1A
330
C
100
AcDbDictionary
0
DICTIONARY
5
17
100
AcDbDictionary
0
ENDSEC
0
EOF
